<?xml version="1.0" standalone="no"?><!DOCTYPE svg PUBLIC "-//W3C//DTD SVG 1.1//EN" "http://www.w3.org/Graphics/SVG/1.1/DTD/svg11.dtd"><svg width="960" height="500" version="1.1" xmlns="http://www.w3.org/2000/svg" xmlns:xlink="http://www.w3.org/1999/xlink"><defs xmlns="http://www.w3.org/1999/xhtml"><style type="text/css"><![CDATA[
svg { display: block; margin-left: auto; margin-right: auto; }
.node { stroke: rgb(255, 255, 255); stroke-width: 1.5px; }
#licensing { fill: green; }
.link { fill: none; stroke: rgb(102, 102, 102); stroke-width: 1.5px; opacity: 0.7; }
.link.in { stroke-dasharray: 0, 2, 1; stroke: green; opacity: 1; }
path.arrow.in { fill: green; }
text { font-style: normal; font-variant: normal; font-weight: normal; font-stretch: normal; font-size: 10px; line-height: normal; font-family: sans-serif; pointer-events: none; text-shadow: rgb(255, 255, 255) 0px 1px 0px, rgb(255, 255, 255) 1px 0px 0px, rgb(255, 255, 255) 0px -1px 0px, rgb(255, 255, 255) -1px 0px 0px; }]]></style></defs><g><path class="link out" marker-end="url(#out)" d="M679.4474645084312,343.6155691194491A0,0 0 0,1 679.4474645084312,343.6155691194491"/><path class="link out" marker-end="url(#out)" d="M457.3212297623185,256.33065355705463A102.17644945215883,102.17644945215883 0 0,1 534.2892223485542,189.12979835494622"/><path class="link out" marker-end="url(#out)" d="M614.4273757328657,251.79536389609913A101.73051033215144,101.73051033215144 0 0,1 534.2892223485542,189.12979835494622"/><path class="link out" marker-end="url(#out)" d="M576.4076349919436,282.13967088542677A102.10189553448588,102.10189553448588 0 0,1 534.2892223485542,189.12979835494622"/><path class="link out" marker-end="url(#out)" d="M498.89397614195013,235.43583509975065A100.6610010597508,100.6610010597508 0 0,1 438.1143997463122,155.19569410088423"/><path class="link out" marker-end="url(#out)" d="M536.5077785082918,134.68334819858586A100.50877234656647,100.50877234656647 0 0,1 438.1143997463122,155.19569410088423"/><path class="link out" marker-end="url(#out)" d="M336.65193557375846,151.84880015867148A101.517650362029,101.517650362029 0 0,1 438.1143997463122,155.19569410088423"/><path class="link out" marker-end="url(#out)" d="M473.03418793189974,107.6070024494015A101.9712974009972,101.9712974009972 0 0,1 534.2892223485542,189.12979835494622"/><path class="link out" marker-end="url(#out)" d="M688.5573944262228,118.2360516756068A99.51526059151593,99.51526059151593 0 0,1 634.4693302434678,201.76908947239409"/><path class="link out" marker-end="url(#out)" d="M627.4059587212598,101.74254514644508A100.27562409205828,100.27562409205828 0 0,1 634.4693302434678,201.76908947239409"/><path class="link out" marker-end="url(#out)" d="M733.4027842237871,211.75875615526573A99.43652124300627,99.43652124300627 0 0,1 634.4693302434678,201.76908947239409"/><path class="link out" marker-end="url(#out)" d="M634.4693302434678,201.76908947239409A100.97428235837145,100.97428235837145 0 0,1 534.2892223485542,189.12979835494622"/><path class="link out" marker-end="url(#out)" d="M403.7225484158082,430.1230371019909A100.52710021458442,100.52710021458442 0 0,1 372.9538296966829,334.4204570639562"/><path class="link out" marker-end="url(#out)" d="M446.82276546094806,403.30300694304685A101.0021056651323,101.0021056651323 0 0,1 372.9538296966829,334.4204570639562"/><path class="link out" marker-end="url(#out)" d="M326.1378462061464,245.2696329049844A100.69560942965731,100.69560942965731 0 0,1 372.9538296966829,334.4204570639562"/><path class="link out" marker-end="url(#out)" d="M287.45258085917163,385.84484291651074A99.77440058996312,99.77440058996312 0 0,1 372.9538296966829,334.4204570639562"/><path class="link out" marker-end="url(#out)" d="M407.4253409945024,31.681801371281466A100.34518899881445,100.34518899881445 0 0,1 473.03418793189974,107.6070024494015"/><path class="link out" marker-end="url(#out)" d="M373.387913012027,89.19203924664414A101.33356292544816,101.33356292544816 0 0,1 473.03418793189974,107.6070024494015"/><path class="link out" marker-end="url(#out)" d="M503.99639478719126,12.463639917143881A100.0545735451132,100.0545735451132 0 0,1 473.03418793189974,107.6070024494015"/><path class="link out" marker-end="url(#out)" d="M438.1143997463122,155.19569410088423A101.98588105271368,101.98588105271368 0 0,1 534.2892223485542,189.12979835494622"/><path class="link out" marker-end="url(#out)" d="M537.2281601021604,500.3176279780539A98.8504213155842,98.8504213155842 0 0,1 554.2620828904328,402.9459109925161"/><path class="link out" marker-end="url(#out)" d="M651.8576298113912,420.14677905580163A99.09975096301483,99.09975096301483 0 0,1 554.2620828904328,402.9459109925161"/><path class="link out" marker-end="url(#out)" d="M467.40818729877793,353.6829339323997A99.85209105607973,99.85209105607973 0 0,1 554.2620828904328,402.9459109925161"/><path class="link out" marker-end="url(#out)" d="M554.2620828904328,402.9459109925161A0,0 0 0,1 554.2620828904328,402.9459109925161"/><path class="link out" marker-end="url(#out)" d="M289.82258516901584,285.7095713721139A100.16331428072243,100.16331428072243 0 0,1 287.45258085917163,385.84484291651074"/><path class="link out" marker-end="url(#out)" d="M237.96825987919135,298.39690252934884A100.47805880293637,100.47805880293637 0 0,1 287.45258085917163,385.84484291651074"/><path class="link out" marker-end="url(#out)" d="M354.3160491193567,460.18782353142615A99.98801005365826,99.98801005365826 0 0,1 287.45258085917163,385.84484291651074"/><path class="link out" marker-end="url(#out)" d="M372.9538296966829,334.4204570639562A99.77440058996312,99.77440058996312 0 0,1 287.45258085917163,385.84484291651074"/><path class="link out" marker-end="url(#out)" d="M553.1250648699901,89.39596625509418A101.49692718902287,101.49692718902287 0 0,1 534.2892223485542,189.12979835494622"/><path class="link out" marker-end="url(#out)" d="M527.9701691459597,290.99168942747184A102.05770566815764,102.05770566815764 0 0,1 534.2892223485542,189.12979835494622"/><path class="link out" marker-end="url(#out)" d="M433.83820978733434,206.02580392821102A101.86206815545295,101.86206815545295 0 0,1 534.2892223485542,189.12979835494622"/><path class="link out" marker-end="url(#out)" d="M534.2892223485542,189.12979835494622A0,0 0 0,1 534.2892223485542,189.12979835494622"/><path class="link in" marker-end="url(#in)" d="M679.4474645084312,343.6155691194491A0,0 0 0,1 679.4474645084312,343.6155691194491"/><path class="link in" marker-end="url(#in)" d="M457.3212297623185,256.33065355705463A102.17644945215883,102.17644945215883 0 0,1 534.2892223485542,189.12979835494622"/><path class="link in" marker-end="url(#in)" d="M614.4273757328657,251.79536389609913A101.73051033215144,101.73051033215144 0 0,1 534.2892223485542,189.12979835494622"/><path class="link in" marker-end="url(#in)" d="M576.4076349919436,282.13967088542677A102.10189553448588,102.10189553448588 0 0,1 534.2892223485542,189.12979835494622"/><path class="link in" marker-end="url(#in)" d="M498.89397614195013,235.43583509975065A100.6610010597508,100.6610010597508 0 0,1 438.1143997463122,155.19569410088423"/><path class="link in" marker-end="url(#in)" d="M536.5077785082918,134.68334819858586A100.50877234656647,100.50877234656647 0 0,1 438.1143997463122,155.19569410088423"/><path class="link in" marker-end="url(#in)" d="M336.65193557375846,151.84880015867148A101.517650362029,101.517650362029 0 0,1 438.1143997463122,155.19569410088423"/><path class="link in" marker-end="url(#in)" d="M473.03418793189974,107.6070024494015A101.9712974009972,101.9712974009972 0 0,1 534.2892223485542,189.12979835494622"/><path class="link in" marker-end="url(#in)" d="M688.5573944262228,118.2360516756068A99.51526059151593,99.51526059151593 0 0,1 634.4693302434678,201.76908947239409"/><path class="link in" marker-end="url(#in)" d="M627.4059587212598,101.74254514644508A100.27562409205828,100.27562409205828 0 0,1 634.4693302434678,201.76908947239409"/><path class="link in" marker-end="url(#in)" d="M733.4027842237871,211.75875615526573A99.43652124300627,99.43652124300627 0 0,1 634.4693302434678,201.76908947239409"/><path class="link in" marker-end="url(#in)" d="M634.4693302434678,201.76908947239409A100.97428235837145,100.97428235837145 0 0,1 534.2892223485542,189.12979835494622"/><path class="link in" marker-end="url(#in)" d="M403.7225484158082,430.1230371019909A100.52710021458442,100.52710021458442 0 0,1 372.9538296966829,334.4204570639562"/><path class="link in" marker-end="url(#in)" d="M446.82276546094806,403.30300694304685A101.0021056651323,101.0021056651323 0 0,1 372.9538296966829,334.4204570639562"/><path class="link in" marker-end="url(#in)" d="M326.1378462061464,245.2696329049844A100.69560942965731,100.69560942965731 0 0,1 372.9538296966829,334.4204570639562"/><path class="link in" marker-end="url(#in)" d="M287.45258085917163,385.84484291651074A99.77440058996312,99.77440058996312 0 0,1 372.9538296966829,334.4204570639562"/><path class="link in" marker-end="url(#in)" d="M407.4253409945024,31.681801371281466A100.34518899881445,100.34518899881445 0 0,1 473.03418793189974,107.6070024494015"/><path class="link in" marker-end="url(#in)" d="M373.387913012027,89.19203924664414A101.33356292544816,101.33356292544816 0 0,1 473.03418793189974,107.6070024494015"/><path class="link in" marker-end="url(#in)" d="M503.99639478719126,12.463639917143881A100.0545735451132,100.0545735451132 0 0,1 473.03418793189974,107.6070024494015"/><path class="link in" marker-end="url(#in)" d="M438.1143997463122,155.19569410088423A101.98588105271368,101.98588105271368 0 0,1 534.2892223485542,189.12979835494622"/><path class="link in" marker-end="url(#in)" d="M537.2281601021604,500.3176279780539A98.8504213155842,98.8504213155842 0 0,1 554.2620828904328,402.9459109925161"/><path class="link in" marker-end="url(#in)" d="M651.8576298113912,420.14677905580163A99.09975096301483,99.09975096301483 0 0,1 554.2620828904328,402.9459109925161"/><path class="link in" marker-end="url(#in)" d="M467.40818729877793,353.6829339323997A99.85209105607973,99.85209105607973 0 0,1 554.2620828904328,402.9459109925161"/><path class="link in" marker-end="url(#in)" d="M554.2620828904328,402.9459109925161A0,0 0 0,1 554.2620828904328,402.9459109925161"/><path class="link in" marker-end="url(#in)" d="M289.82258516901584,285.7095713721139A100.16331428072243,100.16331428072243 0 0,1 287.45258085917163,385.84484291651074"/><path class="link in" marker-end="url(#in)" d="M237.96825987919135,298.39690252934884A100.47805880293637,100.47805880293637 0 0,1 287.45258085917163,385.84484291651074"/><path class="link in" marker-end="url(#in)" d="M354.3160491193567,460.18782353142615A99.98801005365826,99.98801005365826 0 0,1 287.45258085917163,385.84484291651074"/><path class="link in" marker-end="url(#in)" d="M372.9538296966829,334.4204570639562A99.77440058996312,99.77440058996312 0 0,1 287.45258085917163,385.84484291651074"/><path class="link in" marker-end="url(#in)" d="M553.1250648699901,89.39596625509418A101.49692718902287,101.49692718902287 0 0,1 534.2892223485542,189.12979835494622"/><path class="link in" marker-end="url(#in)" d="M527.9701691459597,290.99168942747184A102.05770566815764,102.05770566815764 0 0,1 534.2892223485542,189.12979835494622"/><path class="link in" marker-end="url(#in)" d="M433.83820978733434,206.02580392821102A101.86206815545295,101.86206815545295 0 0,1 534.2892223485542,189.12979835494622"/><path class="link in" marker-end="url(#in)" d="M534.2892223485542,189.12979835494622A0,0 0 0,1 534.2892223485542,189.12979835494622"/></g><g class="node"><circle r="5" style="fill: rgb(31, 119, 180);" cx="679.4474645084312" cy="343.6155691194491"/><text dx="10" dy=".35em" style="stroke: grey;" x="679.4474645084312" y="343.6155691194491">00000</text></g><g class="node"><circle r="5" style="fill: rgb(31, 119, 180);" cx="457.3212297623185" cy="256.33065355705463"/><text dx="10" dy=".35em" style="stroke: grey;" x="457.3212297623185" y="256.33065355705463">00001</text></g><g class="node"><circle r="5" style="fill: rgb(31, 119, 180);" cx="614.4273757328657" cy="251.79536389609913"/><text dx="10" dy=".35em" style="stroke: grey;" x="614.4273757328657" y="251.79536389609913">00010</text></g><g class="node"><circle r="5" style="fill: rgb(31, 119, 180);" cx="576.4076349919436" cy="282.13967088542677"/><text dx="10" dy=".35em" style="stroke: grey;" x="576.4076349919436" y="282.13967088542677">00011</text></g><g class="node"><circle r="5" style="fill: rgb(31, 119, 180);" cx="498.89397614195013" cy="235.43583509975065"/><text dx="10" dy=".35em" style="stroke: grey;" x="498.89397614195013" y="235.43583509975065">00100</text></g><g class="node"><circle r="5" style="fill: rgb(31, 119, 180);" cx="536.5077785082918" cy="134.68334819858586"/><text dx="10" dy=".35em" style="stroke: grey;" x="536.5077785082918" y="134.68334819858586">00101</text></g><g class="node"><circle r="5" style="fill: rgb(31, 119, 180);" cx="336.65193557375846" cy="151.84880015867148"/><text dx="10" dy=".35em" style="stroke: grey;" x="336.65193557375846" y="151.84880015867148">00110</text></g><g class="node"><circle r="5" style="fill: rgb(31, 119, 180);" cx="473.03418793189974" cy="107.6070024494015"/><text dx="10" dy=".35em" style="stroke: grey;" x="473.03418793189974" y="107.6070024494015">00111</text></g><g class="node"><circle r="5" style="fill: rgb(31, 119, 180);" cx="688.5573944262228" cy="118.2360516756068"/><text dx="10" dy=".35em" style="stroke: grey;" x="688.5573944262228" y="118.2360516756068">01000</text></g><g class="node"><circle r="5" style="fill: rgb(31, 119, 180);" cx="627.4059587212598" cy="101.74254514644508"/><text dx="10" dy=".35em" style="stroke: grey;" x="627.4059587212598" y="101.74254514644508">01001</text></g><g class="node"><circle r="5" style="fill: rgb(31, 119, 180);" cx="733.4027842237871" cy="211.75875615526573"/><text dx="10" dy=".35em" style="stroke: grey;" x="733.4027842237871" y="211.75875615526573">01010</text></g><g class="node"><circle r="5" style="fill: rgb(31, 119, 180);" cx="634.4693302434678" cy="201.76908947239409"/><text dx="10" dy=".35em" style="stroke: grey;" x="634.4693302434678" y="201.76908947239409">01011</text></g><g class="node"><circle r="5" style="fill: rgb(31, 119, 180);" cx="403.7225484158082" cy="430.1230371019909"/><text dx="10" dy=".35em" style="stroke: grey;" x="403.7225484158082" y="430.1230371019909">01100</text></g><g class="node"><circle r="5" style="fill: rgb(31, 119, 180);" cx="446.82276546094806" cy="403.30300694304685"/><text dx="10" dy=".35em" style="stroke: grey;" x="446.82276546094806" y="403.30300694304685">01101</text></g><g class="node"><circle r="5" style="fill: rgb(31, 119, 180);" cx="326.1378462061464" cy="245.2696329049844"/><text dx="10" dy=".35em" style="stroke: grey;" x="326.1378462061464" y="245.2696329049844">01110</text></g><g class="node"><circle r="5" style="fill: rgb(31, 119, 180);" cx="287.45258085917163" cy="385.84484291651074"/><text dx="10" dy=".35em" style="stroke: grey;" x="287.45258085917163" y="385.84484291651074">01111</text></g><g class="node"><circle r="5" style="fill: rgb(31, 119, 180);" cx="407.4253409945024" cy="31.681801371281466"/><text dx="10" dy=".35em" style="stroke: grey;" x="407.4253409945024" y="31.681801371281466">10000</text></g><g class="node"><circle r="5" style="fill: rgb(31, 119, 180);" cx="373.387913012027" cy="89.19203924664414"/><text dx="10" dy=".35em" style="stroke: grey;" x="373.387913012027" y="89.19203924664414">10001</text></g><g class="node"><circle r="5" style="fill: rgb(31, 119, 180);" cx="503.99639478719126" cy="12.463639917143881"/><text dx="10" dy=".35em" style="stroke: grey;" x="503.99639478719126" y="12.463639917143881">10010</text></g><g class="node"><circle r="5" style="fill: rgb(31, 119, 180);" cx="438.1143997463122" cy="155.19569410088423"/><text dx="10" dy=".35em" style="stroke: grey;" x="438.1143997463122" y="155.19569410088423">10011</text></g><g class="node"><circle r="5" style="fill: rgb(31, 119, 180);" cx="537.2281601021604" cy="500.3176279780539"/><text dx="10" dy=".35em" style="stroke: grey;" x="537.2281601021604" y="500.3176279780539">10100</text></g><g class="node"><circle r="5" style="fill: rgb(31, 119, 180);" cx="651.8576298113912" cy="420.14677905580163"/><text dx="10" dy=".35em" style="stroke: grey;" x="651.8576298113912" y="420.14677905580163">10101</text></g><g class="node"><circle r="5" style="fill: rgb(31, 119, 180);" cx="467.40818729877793" cy="353.6829339323997"/><text dx="10" dy=".35em" style="stroke: grey;" x="467.40818729877793" y="353.6829339323997">10110</text></g><g class="node"><circle r="5" style="fill: rgb(31, 119, 180);" cx="554.2620828904328" cy="402.9459109925161"/><text dx="10" dy=".35em" style="stroke: grey;" x="554.2620828904328" y="402.9459109925161">10111</text></g><g class="node"><circle r="5" style="fill: rgb(31, 119, 180);" cx="289.82258516901584" cy="285.7095713721139"/><text dx="10" dy=".35em" style="stroke: grey;" x="289.82258516901584" y="285.7095713721139">11000</text></g><g class="node"><circle r="5" style="fill: rgb(31, 119, 180);" cx="237.96825987919135" cy="298.39690252934884"/><text dx="10" dy=".35em" style="stroke: grey;" x="237.96825987919135" y="298.39690252934884">11001</text></g><g class="node"><circle r="5" style="fill: rgb(31, 119, 180);" cx="354.3160491193567" cy="460.18782353142615"/><text dx="10" dy=".35em" style="stroke: grey;" x="354.3160491193567" y="460.18782353142615">11010</text></g><g class="node"><circle r="5" style="fill: rgb(31, 119, 180);" cx="372.9538296966829" cy="334.4204570639562"/><text dx="10" dy=".35em" style="stroke: grey;" x="372.9538296966829" y="334.4204570639562">11011</text></g><g class="node"><circle r="5" style="fill: rgb(31, 119, 180);" cx="553.1250648699901" cy="89.39596625509418"/><text dx="10" dy=".35em" style="stroke: grey;" x="553.1250648699901" y="89.39596625509418">11100</text></g><g class="node"><circle r="5" style="fill: rgb(31, 119, 180);" cx="527.9701691459597" cy="290.99168942747184"/><text dx="10" dy=".35em" style="stroke: grey;" x="527.9701691459597" y="290.99168942747184">11101</text></g><g class="node"><circle r="5" style="fill: rgb(31, 119, 180);" cx="433.83820978733434" cy="206.02580392821102"/><text dx="10" dy=".35em" style="stroke: grey;" x="433.83820978733434" y="206.02580392821102">11110</text></g><g class="node"><circle r="5" style="fill: rgb(31, 119, 180);" cx="534.2892223485542" cy="189.12979835494622"/><text dx="10" dy=".35em" style="stroke: grey;" x="534.2892223485542" y="189.12979835494622">11111</text></g><defs><marker id="out" viewBox="0 -5 10 10" refX="18" refY="-3" markerWidth="4" markerHeight="4" orient="auto"><path d="M0,-5L10,0L0,5" class="arrow out"/></marker><marker id="in" viewBox="0 -5 10 10" refX="18" refY="-3" markerWidth="4" markerHeight="4" orient="auto"><path d="M0,-5L10,0L0,5" class="arrow in"/></marker></defs></svg>